<svg width="487" height="333" viewBox="0 0 487 333" fill="none" xmlns="http://www.w3.org/2000/svg">
<g clip-path="url(#clip0_907:9766)">
<path d="M475.633 332.624H183.438C180.425 332.621 177.536 331.481 175.405 329.454C173.274 327.427 172.075 324.679 172.072 321.813V10.8119C172.075 7.94538 173.274 5.19721 175.405 3.17029C177.536 1.14337 180.425 0.00322694 183.438 0H475.633C478.647 0.00322694 481.536 1.14337 483.667 3.17029C485.798 5.19721 486.997 7.94538 487 10.8119V321.813C486.997 324.679 485.798 327.427 483.667 329.454C481.536 331.481 478.647 332.621 475.633 332.624ZM183.438 1.27199C180.779 1.27485 178.23 2.28086 176.35 4.06931C174.47 5.85777 173.412 8.28262 173.409 10.8119V321.813C173.412 324.342 174.47 326.767 176.35 328.555C178.23 330.344 180.779 331.35 183.438 331.352H475.633C478.292 331.35 480.842 330.344 482.722 328.555C484.602 326.767 485.66 324.342 485.663 321.813V10.8119C485.66 8.28262 484.602 5.85777 482.722 4.06931C480.842 2.28086 478.292 1.27485 475.633 1.27199H183.438Z" fill="#3F3D56"/>
<path d="M486.331 26.4512H172.74V27.7232H486.331V26.4512Z" fill="#3F3D56"/>
<path d="M188.119 19.0798C191.073 19.0798 193.468 16.8018 193.468 13.9918C193.468 11.1819 191.073 8.9039 188.119 8.9039C185.165 8.9039 182.77 11.1819 182.77 13.9918C182.77 16.8018 185.165 19.0798 188.119 19.0798Z" fill="#319795"/>
<path d="M204.835 19.0798C207.789 19.0798 210.184 16.8018 210.184 13.9918C210.184 11.1819 207.789 8.9039 204.835 8.9039C201.881 8.9039 199.486 11.1819 199.486 13.9918C199.486 16.8018 201.881 19.0798 204.835 19.0798Z" fill="#319795"/>
<path d="M221.551 19.0798C224.505 19.0798 226.9 16.8018 226.9 13.9918C226.9 11.1819 224.505 8.9039 221.551 8.9039C218.597 8.9039 216.202 11.1819 216.202 13.9918C216.202 16.8018 218.597 19.0798 221.551 19.0798Z" fill="#319795"/>
<path d="M433.843 73.1392H225.228C222.923 73.1392 220.712 72.2681 219.082 70.7176C217.452 69.1671 216.536 67.0641 216.536 64.8713C216.536 62.6785 217.452 60.5755 219.082 59.025C220.712 57.4745 222.923 56.6034 225.228 56.6034H433.843C436.149 56.6034 438.36 57.4745 439.99 59.025C441.62 60.5755 442.536 62.6785 442.536 64.8713C442.536 67.0641 441.62 69.1671 439.99 70.7176C438.36 72.2681 436.149 73.1392 433.843 73.1392ZM225.228 57.8754C223.278 57.8754 221.407 58.6125 220.028 59.9244C218.648 61.2364 217.873 63.0159 217.873 64.8713C217.873 66.7267 218.648 68.5062 220.028 69.8182C221.407 71.1302 223.278 71.8672 225.228 71.8672H433.843C435.794 71.8672 437.665 71.1302 439.044 69.8182C440.423 68.5062 441.198 66.7267 441.198 64.8713C441.198 63.0159 440.423 61.2364 439.044 59.9244C437.665 58.6125 435.794 57.8754 433.843 57.8754H225.228Z" fill="#3F3D56"/>
<path d="M382.261 138.386H287.314C285.896 138.386 284.535 137.85 283.532 136.896C282.529 135.942 281.965 134.648 281.965 133.298C281.965 131.949 282.529 130.655 283.532 129.7C284.535 128.746 285.896 128.21 287.314 128.21H382.261C383.679 128.21 385.04 128.746 386.043 129.7C387.046 130.655 387.61 131.949 387.61 133.298C387.61 134.648 387.046 135.942 386.043 136.896C385.04 137.85 383.679 138.386 382.261 138.386Z" fill="#CCCCCC"/>
<path d="M437.089 155.558H287.314C285.896 155.558 284.535 155.022 283.532 154.068C282.529 153.114 281.965 151.819 281.965 150.47C281.965 149.121 282.529 147.826 283.532 146.872C284.535 145.918 285.896 145.382 287.314 145.382H437.089C438.508 145.382 439.868 145.918 440.871 146.872C441.875 147.826 442.438 149.121 442.438 150.47C442.438 151.819 441.875 153.114 440.871 154.068C439.868 155.022 438.508 155.558 437.089 155.558Z" fill="#CCCCCC"/>
<path d="M251.737 156.512H222.985C221.301 156.51 219.687 155.873 218.496 154.74C217.305 153.608 216.635 152.072 216.633 150.47V133.298C216.635 131.696 217.305 130.161 218.496 129.028C219.687 127.895 221.301 127.258 222.985 127.256H251.737C253.421 127.258 255.035 127.895 256.226 129.028C257.417 130.161 258.087 131.696 258.089 133.298V150.47C258.087 152.072 257.417 153.608 256.226 154.74C255.035 155.873 253.421 156.51 251.737 156.512ZM222.985 128.528C221.656 128.53 220.381 129.033 219.441 129.927C218.501 130.821 217.972 132.033 217.971 133.298V150.47C217.972 151.735 218.501 152.947 219.441 153.841C220.381 154.735 221.656 155.239 222.985 155.24H251.737C253.066 155.239 254.341 154.735 255.281 153.841C256.221 152.947 256.75 151.735 256.752 150.47V133.298C256.75 132.033 256.221 130.821 255.281 129.927C254.341 129.033 253.066 128.53 251.737 128.528H222.985Z" fill="#CCCCCC"/>
<path d="M382.261 198.805H287.314C285.896 198.805 284.535 198.269 283.532 197.315C282.529 196.361 281.965 195.067 281.965 193.718C281.965 192.368 282.529 191.074 283.532 190.12C284.535 189.166 285.896 188.63 287.314 188.63H382.261C383.679 188.63 385.04 189.166 386.043 190.12C387.046 191.074 387.61 192.368 387.61 193.718C387.61 195.067 387.046 196.361 386.043 197.315C385.04 198.269 383.679 198.805 382.261 198.805Z" fill="#CCCCCC"/>
<path d="M437.089 215.977H287.314C285.896 215.977 284.535 215.441 283.532 214.487C282.529 213.533 281.965 212.239 281.965 210.889C281.965 209.54 282.529 208.246 283.532 207.292C284.535 206.337 285.896 205.801 287.314 205.801H437.089C438.508 205.801 439.868 206.337 440.871 207.292C441.875 208.246 442.438 209.54 442.438 210.889C442.438 212.239 441.875 213.533 440.871 214.487C439.868 215.441 438.508 215.977 437.089 215.977Z" fill="#CCCCCC"/>
<path d="M251.737 216.931H222.985C221.301 216.929 219.687 216.292 218.496 215.16C217.305 214.027 216.635 212.491 216.633 210.889V193.718C216.635 192.116 217.305 190.58 218.496 189.447C219.687 188.315 221.301 187.677 222.985 187.676H251.737C253.421 187.677 255.035 188.315 256.226 189.447C257.417 190.58 258.087 192.116 258.089 193.718V210.889C258.087 212.491 257.417 214.027 256.226 215.16C255.035 216.292 253.421 216.929 251.737 216.931ZM222.985 188.948C221.656 188.949 220.381 189.452 219.441 190.346C218.501 191.24 217.972 192.453 217.971 193.718V210.889C217.972 212.154 218.501 213.366 219.441 214.261C220.381 215.155 221.656 215.658 222.985 215.659H251.737C253.066 215.658 254.341 215.155 255.281 214.261C256.221 213.366 256.75 212.154 256.752 210.889V193.718C256.75 192.453 256.221 191.24 255.281 190.346C254.341 189.452 253.066 188.949 251.737 188.948H222.985Z" fill="#CCCCCC"/>
<path d="M382.261 259.225H287.314C285.896 259.225 284.535 258.689 283.532 257.735C282.529 256.78 281.965 255.486 281.965 254.137C281.965 252.787 282.529 251.493 283.532 250.539C284.535 249.585 285.896 249.049 287.314 249.049H382.261C383.679 249.049 385.04 249.585 386.043 250.539C387.046 251.493 387.61 252.787 387.61 254.137C387.61 255.486 387.046 256.78 386.043 257.735C385.04 258.689 383.679 259.225 382.261 259.225Z" fill="#F2F2F2"/>
<path d="M437.089 276.397H287.314C285.896 276.397 284.535 275.861 283.532 274.906C282.529 273.952 281.965 272.658 281.965 271.309C281.965 269.959 282.529 268.665 283.532 267.711C284.535 266.757 285.896 266.221 287.314 266.221H437.089C438.508 266.221 439.868 266.757 440.871 267.711C441.875 268.665 442.438 269.959 442.438 271.309C442.438 272.658 441.875 273.952 440.871 274.906C439.868 275.861 438.508 276.397 437.089 276.397Z" fill="#F2F2F2"/>
<path d="M251.737 277.351H222.985C221.301 277.349 219.687 276.712 218.496 275.579C217.305 274.446 216.635 272.911 216.633 271.309V254.137C216.635 252.535 217.305 250.999 218.496 249.867C219.687 248.734 221.301 248.097 222.985 248.095H251.737C253.421 248.097 255.035 248.734 256.226 249.867C257.417 250.999 258.087 252.535 258.089 254.137V271.309C258.087 272.911 257.417 274.446 256.226 275.579C255.035 276.712 253.421 277.349 251.737 277.351Z" fill="#F2F2F2"/>
<path d="M237.361 151.258L235.813 149.929C230.315 145.128 226.685 142.011 226.685 138.13C226.672 137.391 226.814 136.657 227.104 135.972C227.394 135.287 227.825 134.663 228.373 134.14C228.92 133.616 229.572 133.202 230.291 132.922C231.01 132.642 231.78 132.502 232.557 132.511C233.474 132.515 234.378 132.71 235.208 133.08C236.037 133.451 236.772 133.988 237.361 134.656C237.95 133.988 238.685 133.45 239.515 133.08C240.344 132.71 241.249 132.515 242.165 132.511C242.942 132.502 243.712 132.642 244.431 132.922C245.15 133.202 245.802 133.616 246.35 134.14C246.897 134.663 247.329 135.287 247.619 135.972C247.908 136.657 248.051 137.391 248.037 138.13C248.037 142.012 244.407 145.128 238.909 149.929L237.361 151.258Z" fill="#319795"/>
<path d="M237.361 211.677L235.813 210.348C230.315 205.547 226.685 202.431 226.685 198.549C226.672 197.81 226.814 197.077 227.104 196.391C227.394 195.706 227.825 195.083 228.373 194.559C228.92 194.035 229.572 193.621 230.291 193.341C231.01 193.061 231.78 192.921 232.557 192.93C233.474 192.935 234.378 193.129 235.208 193.499C236.037 193.87 236.772 194.408 237.361 195.075C237.95 194.408 238.685 193.87 239.515 193.499C240.344 193.129 241.249 192.934 242.165 192.93C242.942 192.921 243.712 193.061 244.431 193.341C245.15 193.621 245.802 194.035 246.35 194.559C246.897 195.083 247.329 195.706 247.619 196.391C247.908 197.077 248.051 197.81 248.037 198.549C248.037 202.431 244.407 205.547 238.909 210.348L237.361 211.677Z" fill="#319795"/>
<path d="M115.895 201.513H87.1441C85.46 201.511 83.8454 200.874 82.6546 199.741C81.4638 198.608 80.7939 197.073 80.792 195.471V178.299C80.7939 176.697 81.4638 175.161 82.6546 174.029C83.8454 172.896 85.46 172.259 87.1441 172.257H115.895C117.58 172.259 119.194 172.896 120.385 174.029C121.576 175.161 122.246 176.697 122.248 178.299V195.471C122.246 197.073 121.576 198.608 120.385 199.741C119.194 200.874 117.58 201.511 115.895 201.513ZM87.1441 173.529C85.8145 173.531 84.5398 174.034 83.5997 174.928C82.6596 175.822 82.1307 177.034 82.1293 178.299V195.471C82.1307 196.736 82.6596 197.948 83.5997 198.842C84.5398 199.736 85.8145 200.239 87.1441 200.241H115.895C117.225 200.239 118.5 199.736 119.44 198.842C120.38 197.948 120.909 196.736 120.91 195.471V178.299C120.909 177.034 120.38 175.822 119.44 174.928C118.5 174.034 117.225 173.531 115.895 173.529H87.1441Z" fill="#3F3D56"/>
<path d="M101.52 196.258L99.9716 194.93C94.4736 190.129 90.8439 187.012 90.8439 183.13C90.8303 182.392 90.9726 181.658 91.2624 180.973C91.5522 180.287 91.9837 179.664 92.5312 179.14C93.0787 178.617 93.7311 178.202 94.4498 177.923C95.1686 177.643 95.9391 177.503 96.7156 177.511C97.6321 177.516 98.5366 177.71 99.3662 178.081C100.196 178.451 100.931 178.989 101.52 179.657C102.109 178.989 102.844 178.451 103.673 178.081C104.503 177.71 105.407 177.516 106.324 177.511C107.1 177.503 107.871 177.643 108.59 177.923C109.308 178.202 109.961 178.617 110.508 179.14C111.056 179.664 111.487 180.287 111.777 180.973C112.067 181.658 112.209 182.392 112.196 183.13C112.196 187.012 108.566 190.129 103.068 194.93L101.52 196.258Z" fill="#319795"/>
<path d="M84.8936 325.696L92.3302 324.013L89.0458 295.929L78.0702 298.412L84.8936 325.696Z" fill="#FFB8B8"/>
<path d="M108.314 327.336L84.9425 332.624L82.7944 324.035L97.1362 320.79C98.3221 320.522 99.5519 320.478 100.755 320.662C101.959 320.846 103.113 321.253 104.151 321.861C105.189 322.469 106.091 323.265 106.805 324.205C107.519 325.144 108.032 326.208 108.314 327.336Z" fill="#2F2E41"/>
<path d="M77.5941 307.612L61.4429 254.961L81.6258 250.199L93.4661 305.96C93.5528 306.369 93.5448 306.79 93.4425 307.196C93.3402 307.601 93.146 307.98 92.8737 308.306C92.6013 308.633 92.2573 308.899 91.8656 309.086C91.474 309.272 91.0442 309.375 90.6062 309.388L80.5719 309.671C80.5417 309.672 80.5117 309.673 80.4817 309.673C79.8308 309.672 79.1976 309.471 78.677 309.1C78.1564 308.728 77.7764 308.206 77.5941 307.612Z" fill="#2F2E41"/>
<path d="M38.8412 325.873L46.4851 325.872L50.1204 297.827L38.8385 297.829L38.8412 325.873Z" fill="#FFB8B8"/>
<path d="M61.2279 332.622L37.2039 332.624L37.2031 323.796L51.9451 323.794C54.4068 323.794 56.7678 324.724 58.5087 326.38C60.2496 328.035 61.2277 330.281 61.2279 332.622Z" fill="#2F2E41"/>
<path d="M37.499 314.976C37.2181 314.718 36.9939 314.408 36.8396 314.067C36.6853 313.725 36.6039 313.358 36.6 312.986L29.6358 260.462C29.6329 259.705 29.9455 258.977 30.5053 258.438C31.065 257.899 31.8263 257.593 32.6228 257.586L48.1675 257.479H48.1897C48.979 257.481 49.7361 257.777 50.2985 258.304C50.8608 258.831 51.1837 259.546 51.1979 260.297L52.0242 312.038C52.0366 312.793 51.7345 313.522 51.1839 314.066C50.6332 314.61 49.8788 314.925 49.085 314.942L39.6487 315.795C39.6342 315.795 39.6196 315.795 39.6051 315.795C38.8169 315.797 38.0599 315.503 37.499 314.976Z" fill="#2F2E41"/>
<path d="M40.8301 141.133C49.9 141.133 57.2526 134.139 57.2526 125.512C57.2526 116.885 49.9 109.891 40.8301 109.891C31.7603 109.891 24.4077 116.885 24.4077 125.512C24.4077 134.139 31.7603 141.133 40.8301 141.133Z" fill="#FFB8B8"/>
<path d="M19.195 257.719C8.50991 249.778 8.62301 240.513 12.269 228.139C13.2961 224.653 14.4047 221.12 15.5782 217.379C21.031 200.001 27.2111 180.304 24.8649 164.04L25.1961 163.997L24.8649 164.04C24.2222 159.585 25.8603 154.9 29.3589 151.185C32.8577 147.47 37.5669 145.411 42.3007 145.527C47.0262 145.647 51.6213 147.945 54.9074 151.832C58.1774 155.7 59.7382 169.3 60.2008 171.249C62.3248 180.196 63.6067 185.596 64.5261 194.21C65.6134 204.394 78.636 234.844 82.7858 239.951C83.8871 241.299 84.6756 242.853 85.0993 244.512C85.5231 246.171 85.5724 247.897 85.2442 249.575C84.9384 251.172 84.2753 252.687 83.2998 254.019C82.3244 255.35 81.0594 256.467 79.5907 257.293C72.8562 261.209 65.4561 263.979 57.7222 265.479C54.3674 266.098 50.958 266.41 47.5408 266.411C36.9383 266.411 26.8075 263.376 19.195 257.719Z" fill="#319795"/>
<path d="M87.488 198.869C87.0627 198.096 86.4646 197.422 85.7357 196.893C85.0068 196.365 84.1649 195.994 83.2694 195.809C82.3738 195.623 81.4463 195.626 80.5523 195.818C79.6582 196.011 78.8193 196.387 78.0946 196.921L65.6504 190.167L59.4909 196.359L77.2053 205.662C78.2289 206.76 79.6406 207.464 81.1728 207.638C82.7051 207.813 84.2515 207.447 85.5189 206.609C86.7864 205.772 87.6869 204.522 88.0498 203.095C88.4127 201.668 88.2128 200.164 87.488 198.869V198.869Z" fill="#FFB8B8"/>
<path d="M68.5177 203.447L46.2138 196.782C43.2193 195.881 40.5874 194.127 38.6733 191.759C36.7591 189.39 35.6549 186.52 35.5094 183.535L34.5497 162.922C34.4958 161.763 34.6883 160.605 35.1157 159.517C35.5431 158.43 36.1967 157.436 37.0373 156.595C37.8779 155.753 38.8883 155.082 40.0081 154.621C41.1278 154.159 42.3339 153.917 43.5542 153.909C44.7744 153.902 45.9838 154.128 47.11 154.575C48.2362 155.022 49.256 155.681 50.1084 156.511C50.9609 157.342 51.6285 158.327 52.0712 159.409C52.514 160.49 52.7229 161.646 52.6854 162.806L52.0719 181.771L75.8097 190.979C76.2288 191.142 76.604 191.393 76.9072 191.712C77.2104 192.032 77.434 192.413 77.5611 192.826C77.6882 193.239 77.7157 193.674 77.6414 194.099C77.5672 194.524 77.3931 194.927 77.1323 195.279L71.8787 202.366C71.512 202.862 70.9885 203.235 70.3841 203.429C69.7797 203.624 69.1259 203.63 68.5177 203.447H68.5177Z" fill="#2F2E41"/>
<path d="M14.3637 144.95C15.1141 140.669 15.0866 136.232 15.0598 131.941C15.0526 130.776 15.0453 129.611 15.0528 128.449C15.0877 123.047 15.4401 117.322 17.7619 112.051C20.2889 106.314 24.9684 102.172 30.2796 100.97C36.2677 99.6139 42.7652 102.612 44.7213 107.55C46.0144 106.855 47.4535 106.442 48.9348 106.341C50.4161 106.239 51.9026 106.451 53.287 106.963C54.6715 107.474 55.9194 108.271 56.9407 109.296C57.9621 110.322 58.7313 111.55 59.1931 112.893C59.6548 114.236 59.7974 115.659 59.6106 117.06C59.4239 118.462 58.9124 119.806 58.1132 120.997C57.3139 122.187 56.2468 123.194 54.9888 123.945C53.7307 124.696 52.3132 125.172 50.8384 125.338L50.5875 125.359L48.6308 120.522C48.6197 120.607 48.6091 120.693 48.5983 120.779C48.4737 121.782 48.3449 122.819 47.4744 123.418C46.3875 124.166 45.0339 126.627 45.4294 129.12C45.676 130.396 46.0435 131.648 46.5274 132.861C47.0652 134.192 47.4556 135.573 47.6923 136.982C47.941 138.787 47.4444 140.614 46.3067 142.078C45.9695 142.506 45.5443 142.863 45.0571 143.129C44.5698 143.395 44.0307 143.564 43.4727 143.625L21.4158 145.794L20.4296 138.787L14.1556 146.137L14.3637 144.95Z" fill="#2F2E41"/>
<path d="M129.047 333H0.668638C0.491304 333 0.321233 332.933 0.195839 332.814C0.0704451 332.694 0 332.533 0 332.364C0 332.195 0.0704451 332.034 0.195839 331.914C0.321233 331.795 0.491304 331.728 0.668638 331.728H129.047C129.224 331.728 129.395 331.795 129.52 331.914C129.645 332.034 129.716 332.195 129.716 332.364C129.716 332.533 129.645 332.694 129.52 332.814C129.395 332.933 129.224 333 129.047 333Z" fill="#CCCCCC"/>
</g>
<defs>
<clipPath id="clip0_907:9766">
<rect width="487" height="333" fill="white"/>
</clipPath>
</defs>
</svg>
